<svg xmlns="http://www.w3.org/2000/svg" style="display: none;">
  <defs>
    <!-- Dolphin Icon -->
    <symbol id="icon-dolphin" viewBox="0 0 24 24" fill="currentColor">
      <path d="M12 2C6.5 2 2 6.5 2 12s4.5 10 10 10c1.4 0 2.7-.3 3.9-.8.5-.2.7-.8.5-1.3-.2-.5-.8-.7-1.3-.5-1 .4-2 .6-3.1.6-4.4 0-8-3.6-8-8s3.6-8 8-8 8 3.6 8 8c0 .6-.1 1.1-.2 1.6-.1.5.2 1.1.7 1.2.5.1 1.1-.2 1.2-.7.2-.7.3-1.4.3-2.1 0-5.5-4.5-10-10-10zm5.5 7c-.3 0-.5.2-.5.5s.2.5.5.5.5-.2.5-.5-.2-.5-.5-.5zm-7 0c-.3 0-.5.2-.5.5s.2.5.5.5.5-.2.5-.5-.2-.5-.5-.5zm1.5 3c-1.1 0-2 .9-2 2s.9 2 2 2 2-.9 2-2-.9-2-2-2z"/>
    </symbol>
    
    <!-- Ocean Wave Icon -->
    <symbol id="icon-wave" viewBox="0 0 24 24" fill="currentColor">
      <path d="M20 12c-1.1 0-2.2-.3-3-1-1.6 1.4-4.4 1.4-6 0-.8.7-1.9 1-3 1s-2.2-.3-3-1c-.3-.2-.7-.2-1 0s-.3.7 0 1c1.1 1 2.5 1.5 4 1.5 1.1 0 2.2-.3 3-1 1.6 1.4 4.4 1.4 6 0 .8.7 1.9 1 3 1 1.5 0 2.9-.5 4-1.5.3-.3.3-.8 0-1-.3-.2-.7-.2-1 0-.8.7-1.9 1-3 1zm0-4c-1.1 0-2.2-.3-3-1-1.6 1.4-4.4 1.4-6 0-.8.7-1.9 1-3 1s-2.2-.3-3-1c-.3-.2-.7-.2-1 0s-.3.7 0 1c1.1 1 2.5 1.5 4 1.5 1.1 0 2.2-.3 3-1 1.6 1.4 4.4 1.4 6 0 .8.7 1.9 1 3 1 1.5 0 2.9-.5 4-1.5.3-.3.3-.8 0-1-.3-.2-.7-.2-1 0-.8.7-1.9 1-3 1zm0 8c-1.1 0-2.2-.3-3-1-1.6 1.4-4.4 1.4-6 0-.8.7-1.9 1-3 1s-2.2-.3-3-1c-.3-.2-.7-.2-1 0s-.3.7 0 1c1.1 1 2.5 1.5 4 1.5 1.1 0 2.2-.3 3-1 1.6 1.4 4.4 1.4 6 0 .8.7 1.9 1 3 1 1.5 0 2.9-.5 4-1.5.3-.3.3-.8 0-1-.3-.2-.7-.2-1 0-.8.7-1.9 1-3 1z"/>
    </symbol>
    
    <!-- Research/Science Icon -->
    <symbol id="icon-research" viewBox="0 0 24 24" fill="currentColor">
      <path d="M7 2v2h1v14c0 2.2 1.8 4 4 4s4-1.8 4-4V4h1V2H7zm5 18c-1.1 0-2-.9-2-2h4c0 1.1-.9 2-2 2zm2-4h-4v-2h4v2zm0-4h-4V8h4v4zm0-6h-4V4h4v2z"/>
    </symbol>
    
    <!-- Conservation/Shield Icon -->
    <symbol id="icon-conservation" viewBox="0 0 24 24" fill="currentColor">
      <path d="M12 1L3 5v6c0 5.55 3.84 10.74 9 12 5.16-1.26 9-6.45 9-12V5l-9-4zm0 10.99h7c-.53 4.12-3.28 7.79-7 8.94V12H5V6.3l7-3.11v8.8z"/>
    </symbol>
    
    <!-- AI/Brain Icon -->
    <symbol id="icon-brain" viewBox="0 0 24 24" fill="currentColor">
      <path d="M13 3C9.2 3 6.2 5.9 6 9.7 4.3 9.9 3 11.3 3 13c0 1.1.5 2.1 1.4 2.6-.2.6-.4 1.2-.4 1.9 0 2.5 2 4.5 4.5 4.5 1.6 0 3-.8 3.8-2.1.5.1 1 .1 1.5.1 1.4 0 2.6-.4 3.7-1 .5 1.5 2 2.5 3.5 2.5 2.2 0 4-1.8 4-4 0-.8-.2-1.5-.6-2.1.6-.6 1.1-1.5 1.1-2.4 0-1.8-1.5-3.3-3.3-3.3-.3 0-.7.1-1 .2C20.3 6.1 17 3 13 3zm0 2c3.3 0 6 2.7 6 6s-2.7 6-6 6-6-2.7-6-6 2.7-6 6-6z"/>
    </symbol>
    
    <!-- Education/Book Icon -->
    <symbol id="icon-education" viewBox="0 0 24 24" fill="currentColor">
      <path d="M18 2H6c-1.1 0-2 .9-2 2v16c0 1.1.9 2 2 2h12c1.1 0 2-.9 2-2V4c0-1.1-.9-2-2-2zM6 4h5v8l-2.5-1.5L6 12V4z"/>
    </symbol>
    
    <!-- Sound/Audio Icon -->
    <symbol id="icon-sound" viewBox="0 0 24 24" fill="currentColor">
      <path d="M3 9v6h4l5 5V4L7 9H3zm13.5 3c0-1.77-1.02-3.29-2.5-4.03v8.05c1.48-.73 2.5-2.25 2.5-4.02zM14 3.23v2.06c2.89.86 5 3.54 5 6.71s-2.11 5.85-5 6.71v2.06c4.01-.91 7-4.49 7-8.77s-2.99-7.86-7-8.77z"/>
    </symbol>
    
    <!-- Heart/Donate Icon -->
    <symbol id="icon-heart" viewBox="0 0 24 24" fill="currentColor">
      <path d="M12 21.35l-1.45-1.32C5.4 15.36 2 12.28 2 8.5 2 5.42 4.42 3 7.5 3c1.74 0 3.41.81 4.5 2.09C13.09 3.81 14.76 3 16.5 3 19.58 3 22 5.42 22 8.5c0 3.78-3.4 6.86-8.55 11.54L12 21.35z"/>
    </symbol>
    
    <!-- Email/Contact Icon -->
    <symbol id="icon-email" viewBox="0 0 24 24" fill="currentColor">
      <path d="M20 4H4c-1.1 0-1.99.9-1.99 2L2 18c0 1.1.9 2 2 2h16c1.1 0 2-.9 2-2V6c0-1.1-.9-2-2-2zm0 4l-8 5-8-5V6l8 5 8-5v2z"/>
    </symbol>
    
    <!-- Check/Success Icon -->
    <symbol id="icon-check" viewBox="0 0 24 24" fill="currentColor">
      <path d="M9 16.2L4.8 12l-1.4 1.4L9 19 21 7l-1.4-1.4L9 16.2z"/>
    </symbol>
    
    <!-- Info Icon -->
    <symbol id="icon-info" viewBox="0 0 24 24" fill="currentColor">
      <path d="M12 2C6.48 2 2 6.48 2 12s4.48 10 10 10 10-4.48 10-10S17.52 2 12 2zm1 15h-2v-6h2v6zm0-8h-2V7h2v2z"/>
    </symbol>
    
    <!-- Download Icon -->
    <symbol id="icon-download" viewBox="0 0 24 24" fill="currentColor">
      <path d="M19 9h-4V3H9v6H5l7 7 7-7zM5 18v2h14v-2H5z"/>
    </symbol>
    
    <!-- Play Icon -->
    <symbol id="icon-play" viewBox="0 0 24 24" fill="currentColor">
      <path d="M8 5v14l11-7z"/>
    </symbol>
    
    <!-- Pause Icon -->
    <symbol id="icon-pause" viewBox="0 0 24 24" fill="currentColor">
      <path d="M6 19h4V5H6v14zm8-14v14h4V5h-4z"/>
    </symbol>
    
    <!-- Calendar Icon -->
    <symbol id="icon-calendar" viewBox="0 0 24 24" fill="currentColor">
      <path d="M20 3h-1V1h-2v2H7V1H5v2H4c-1.1 0-2 .9-2 2v16c0 1.1.9 2 2 2h16c1.1 0 2-.9 2-2V5c0-1.1-.9-2-2-2zm0 18H4V8h16v13z"/>
    </symbol>
    
    <!-- Location Icon -->
    <symbol id="icon-location" viewBox="0 0 24 24" fill="currentColor">
      <path d="M12 2C8.13 2 5 5.13 5 9c0 5.25 7 13 7 13s7-7.75 7-13c0-3.87-3.13-7-7-7zm0 9.5c-1.38 0-2.5-1.12-2.5-2.5s1.12-2.5 2.5-2.5 2.5 1.12 2.5 2.5-1.12 2.5-2.5 2.5z"/>
    </symbol>
    
    <!-- Chart/Stats Icon -->
    <symbol id="icon-chart" viewBox="0 0 24 24" fill="currentColor">
      <path d="M5 9.2h3V19H5zM10.6 5h2.8v14h-2.8zm5.6 8H19v6h-2.8z"/>
    </symbol>
    
    <!-- Globe/World Icon -->
    <symbol id="icon-globe" viewBox="0 0 24 24" fill="currentColor">
      <path d="M11.99 2C6.47 2 2 6.48 2 12s4.47 10 9.99 10C17.52 22 22 17.52 22 12S17.52 2 11.99 2zm6.93 6h-2.95c-.32-1.25-.78-2.45-1.38-3.56 1.84.63 3.37 1.91 4.33 3.56zM12 4.04c.83 1.2 1.48 2.53 1.91 3.96h-3.82c.43-1.43 1.08-2.76 1.91-3.96zM4.26 14C4.1 13.36 4 12.69 4 12s.1-1.36.26-2h3.38c-.08.66-.14 1.32-.14 2 0 .68.06 1.34.14 2H4.26zm.82 2h2.95c.32 1.25.78 2.45 1.38 3.56-1.84-.63-3.37-1.9-4.33-3.56zm2.95-8H5.08c.96-1.66 2.49-2.93 4.33-3.56C8.81 5.55 8.35 6.75 8.03 8zM12 19.96c-.83-1.2-1.48-2.53-1.91-3.96h3.82c-.43 1.43-1.08 2.76-1.91 3.96zM14.34 14H9.66c-.09-.66-.16-1.32-.16-2 0-.68.07-1.35.16-2h4.68c.09.65.16 1.32.16 2 0 .68-.07 1.34-.16 2zm.25 5.56c.6-1.11 1.06-2.31 1.38-3.56h2.95c-.96 1.65-2.49 2.93-4.33 3.56zM16.36 14c.08-.66.14-1.32.14-2 0-.68-.06-1.34-.14-2h3.38c.16.64.26 1.31.26 2s-.1 1.36-.26 2h-3.38z"/>
    </symbol>
    
    <!-- Arrow Right Icon -->
    <symbol id="icon-arrow-right" viewBox="0 0 24 24" fill="currentColor">
      <path d="M10 6L8.59 7.41 13.17 12l-4.58 4.59L10 18l6-6z"/>
    </symbol>
    
    <!-- Menu Icon -->
    <symbol id="icon-menu" viewBox="0 0 24 24" fill="currentColor">
      <path d="M3 18h18v-2H3v2zm0-5h18v-2H3v2zm0-7v2h18V6H3z"/>
    </symbol>
    
    <!-- Close Icon -->
    <symbol id="icon-close" viewBox="0 0 24 24" fill="currentColor">
      <path d="M19 6.41L17.59 5 12 10.59 6.41 5 5 6.41 10.59 12 5 17.59 6.41 19 12 13.41 17.59 19 19 17.59 13.41 12z"/>
    </symbol>
  </defs>
</svg>